<?xml version="1.0" encoding="utf-8"?>
<!-- Generator: Adobe Illustrator 25.3.1, SVG Export Plug-In . SVG Version: 6.00 Build 0)  -->
<svg version="1.1" id="レイヤー_1" xmlns="http://www.w3.org/2000/svg" xmlns:xlink="http://www.w3.org/1999/xlink" x="0px"
	 y="0px" viewBox="0 0 1024 1024" style="enable-background:new 0 0 1024 1024;" xml:space="preserve">
<style type="text/css">
	.st0{fill:#FFFFFF;}
</style>
<path class="st0" d="M1013.2,762.9c0.1-145.7,0.1-291.5,0.1-437.2c0-52.5-37.3-89.4-90-89.4c-106.9,0-213.9,0-320.8,0
	c-3.2,0-6.4,0-9.6,0c-0.2-0.7-0.4-1.5-0.6-2.2c64.1-62.5,128.2-124.9,189.9-185.1C766.8,32.4,752,16.4,736.9,0
	c-75.5,73.6-150.3,146.4-225.6,219.7C436.1,146.5,361.4,73.8,285.9,0.3c-15.7,16.6-30.7,32.4-46.1,48.6
	c62.8,61.2,126.3,123.1,189.8,185c-0.3,0.8-0.5,1.6-0.8,2.4c-3.3,0-6.6,0-9.9,0c-106.6,0-213.3,0-319.9,0c-4.8,0-9.8,0-14.5,0.9
	C38.7,246,10.8,280,10.7,326.9c-0.1,81.2,0,162.5,0,243.7c0,87.2-0.1,174.4,0,261.6c0.1,51,31.8,87.1,82.6,90.7
	c33.5,2.4,67.2,1,100.9,0.9c6.7,0,10.8,1.8,14.4,7.7c16.2,26.4,33,52.4,49.6,78.6c11.5,18.2,29.2,18.3,40.7,0.3
	c16.8-26.4,33.6-52.8,50-79.3c3.2-5.1,6.6-7.3,12.9-7.3c96.4,0.2,192.8,0.2,289.1,0c6.2,0,9.8,1.9,13,7.1
	c16.7,26.8,33.5,53.4,50.5,80c11,17.2,28.9,17.2,39.8,0.2c16.7-26.1,33.4-52.2,49.6-78.6c3.9-6.3,8-8.8,15.6-8.8
	c38.5,0.1,77,0.8,115.4-1.1c42.1-2,76.4-38,77.9-79.8C1013.7,816.3,1013.2,789.6,1013.2,762.9z M658.5,600.7l-248,126.6
	c-15.3,7.8-33.5-3.3-33.5-20.5V453.6c0-17.2,18.2-28.3,33.5-20.5l248,126.6C675.2,568.3,675.2,592.2,658.5,600.7z"/>
</svg>
