<?xml version="1.0" encoding="utf-8"?>
<!-- Generator: Adobe Illustrator 25.3.1, SVG Export Plug-In . SVG Version: 6.00 Build 0)  -->
<svg version="1.1" id="レイヤー_1" xmlns="http://www.w3.org/2000/svg" xmlns:xlink="http://www.w3.org/1999/xlink" x="0px"
	 y="0px" viewBox="0 0 1024 1024" style="enable-background:new 0 0 1024 1024;" xml:space="preserve">
<style type="text/css">
	.st0{fill:#505050;}
	.st1{fill:#505050;}
</style>
<path class="st0" d="M502.1,929.3c-26.2,0-51.7-10.7-70.5-30.6L321.2,781.9c-6.8-7.1-16.2-11.2-26.1-11.2H178.9
	c-73.4,0-133.1-59.7-133.1-133.1V385.1c0-73.4,59.7-133.1,133.1-133.1h110.5c9.5,0,18.5-3.7,25.3-10.4l119-118.3
	c28.4-28.2,69-36.2,106-20.8s60,49.8,60,89.9V832c0,40.1-24.1,75.6-61.3,90.4C526.5,927,514.3,929.3,502.1,929.3L502.1,929.3z
	 M178.9,313.4c-39.5,0-71.7,32.2-71.7,71.7v252.5c0,39.5,32.2,71.7,71.7,71.7h116.2c26.6,0,52.4,11.1,70.7,30.5l110.4,116.8
	c15.5,16.4,34,10.8,39.3,8.7c5.3-2.1,22.6-10.8,22.6-33.3V192.2c0-22.2-16.9-31-22.1-33.1c-5.2-2.1-23.3-8-39.1,7.7L358,285.1
	c-18.4,18.2-42.7,28.3-68.6,28.3H178.9L178.9,313.4z"/>
<g>
	<path class="st1" d="M968.5,665.4L968.5,665.4c-11.9,11.9-31.3,11.9-43.2,0L661.8,401.9c-11.9-11.9-11.9-31.3,0-43.2l0,0
		c11.9-11.9,31.3-11.9,43.2,0l263.6,263.6C980.5,634.1,980.5,653.5,968.5,665.4z"/>
	<path class="st1" d="M661.9,665.5L661.9,665.5c-11.9-11.9-11.9-31.3,0-43.2l263.6-263.6c11.9-11.9,31.3-11.9,43.2,0l0,0
		c11.9,11.9,11.9,31.3,0,43.2L705.1,665.5C693.2,677.5,673.8,677.5,661.9,665.5z"/>
</g>
</svg>
