<?xml version="1.0" encoding="utf-8"?>
<!-- Generator: Adobe Illustrator 25.3.1, SVG Export Plug-In . SVG Version: 6.00 Build 0)  -->
<svg version="1.1" id="レイヤー_1" xmlns="http://www.w3.org/2000/svg" xmlns:xlink="http://www.w3.org/1999/xlink" x="0px"
	 y="0px" viewBox="0 0 1024 1024" style="enable-background:new 0 0 1024 1024;" xml:space="preserve">
<style type="text/css">
	.st0{fill:#505050;}
	.st1{fill:#505050;}
</style>
<path class="st0" d="M502.1,929.3c-26.2,0-51.7-10.7-70.5-30.6L321.2,781.9c-6.8-7.1-16.2-11.2-26.1-11.2H178.9
	c-73.4,0-133.1-59.7-133.1-133.1V385.1c0-73.4,59.7-133.1,133.1-133.1h110.5c9.5,0,18.5-3.7,25.3-10.4l119-118.3
	c28.4-28.2,69-36.2,106-20.8s60,49.8,60,89.9V832c0,40.1-24.1,75.6-61.3,90.4C526.5,927,514.3,929.3,502.1,929.3L502.1,929.3z
	 M178.9,313.4c-39.5,0-71.7,32.2-71.7,71.7v252.5c0,39.5,32.2,71.7,71.7,71.7h116.2c26.6,0,52.4,11.1,70.7,30.5l110.4,116.8
	c15.5,16.4,34,10.8,39.3,8.7c5.3-2.1,22.6-10.8,22.6-33.3V192.2c0-22.2-16.9-31-22.1-33.1c-5.2-2.1-23.3-8-39.1,7.7L358,285.1
	c-18.4,18.2-42.7,28.3-68.6,28.3L178.9,313.4L178.9,313.4z"/>
<path class="st1" d="M688.7,731.6c-9.6,0-19-4.5-25-12.9c-9.9-13.8-6.7-33,7.1-42.9c52.2-37.4,83.4-97.9,83.4-162
	c0-66.3-32.8-127.9-87.8-165.1c-14-9.5-17.8-28.5-8.3-42.6c0,0,0-0.1,0.1-0.1c9.5-14.1,28.6-17.7,42.6-8.2c0,0,0,0,0,0
	c71.9,48.6,114.8,129.3,114.8,216c0,83.9-40.8,163.1-109,212C701.4,729.6,695.2,731.6,688.7,731.6L688.7,731.6z"/>
<path class="st1" d="M811.5,849.7c-8.3,0-16.6-3.3-22.6-9.9c-11.5-12.5-10.6-31.9,1.8-43.4c80.1-73.5,126.1-178,126.1-286.7
	c0-107.7-43-207.9-121.1-282.1c-12.3-11.7-12.8-31.1-1.1-43.4c11.7-12.3,31.1-12.8,43.4-1.1c90.5,85.9,140.2,201.9,140.2,326.7
	c0,125.8-53.2,246.8-146,332C826.6,846.8,819.2,849.7,811.5,849.7L811.5,849.7z"/>
</svg>
