<?xml version="1.0" encoding="utf-8"?>
<!-- Generator: Adobe Illustrator 25.3.1, SVG Export Plug-In . SVG Version: 6.00 Build 0)  -->
<svg version="1.1" id="レイヤー_1" xmlns="http://www.w3.org/2000/svg" xmlns:xlink="http://www.w3.org/1999/xlink" x="0px"
	 y="0px" viewBox="0 0 1024 1024" style="enable-background:new 0 0 1024 1024;" xml:space="preserve">
<style type="text/css">
	.st0{fill:#505050;}
	.st1{fill:#FFFFFF;}
</style>
<path class="st0" d="M512,942.1C274.8,942.1,81.9,749.2,81.9,512S274.8,81.9,512,81.9S942.1,274.8,942.1,512S749.2,942.1,512,942.1z
	 M512,143.4c-203.3,0-368.6,165.4-368.6,368.6S308.7,880.6,512,880.6S880.6,715.3,880.6,512S715.3,143.4,512,143.4z"/>
<g>
	<path class="st1" d="M447.6,383.4c11,8.9,19.7,19.4,26.3,31.5c6.6,12.1,11,25.8,13.3,41h-24h-24c-2.5-9.9-6.1-18.4-10.8-25.7
		c-4.7-7.2-10.5-13.1-17.4-17.8c-6.7-4.6-14.4-8-23.1-10.2c-8.6-2.2-18.2-3.3-28.8-3.3c-15.8,0-29.6,2.6-41.5,8
		s-21.8,13.5-29.8,24.5c-7.4,9.7-12.9,21.3-16.5,34.8s-5.4,28.9-5.4,46.2c0,17.7,1.8,33.4,5.4,47.1s9,25.2,16.1,34.7
		c7.8,10.1,17.8,17.8,30,23s26.5,7.8,43,7.8c10.8,0,20.6-1.4,29.4-4s16.6-6.5,23.4-11.6c7.2-5.7,13.3-12.9,18.3-21.5
		c5.1-8.6,9.1-18.6,12-30h24h24c-3.4,17.7-9,33.4-16.8,47.2c-7.9,13.8-18,25.6-30.4,35.5c-11.6,9.3-24.4,16.2-38.3,20.9
		c-13.9,4.6-29,7-45.2,7c-25.1,0-47-4-65.7-11.9c-18.7-7.9-34.2-19.7-46.4-35.3c-10.8-13.5-18.8-29.3-24.1-47.4
		c-5.3-18.1-8-38.6-8-61.4c0-22.3,2.7-42.7,8.3-60.9c5.5-18.2,13.9-34.4,25-48.3c12.7-16,28.1-27.9,46.5-35.8s39.5-11.8,63.6-11.8
		c17.7,0,33.9,2.3,48.6,7C423.1,367.2,436.2,374.1,447.6,383.4z"/>
	<path class="st1" d="M763.7,383.4c11,8.9,19.7,19.4,26.3,31.5s11,25.8,13.3,41h-24h-24c-2.5-9.9-6.1-18.4-10.8-25.7
		c-4.7-7.2-10.5-13.1-17.4-17.8c-6.7-4.6-14.4-8-23.1-10.2c-8.6-2.2-18.2-3.3-28.8-3.3c-15.8,0-29.6,2.6-41.5,8
		s-21.8,13.5-29.8,24.5c-7.4,9.7-12.9,21.3-16.5,34.8s-5.4,28.9-5.4,46.2c0,17.7,1.8,33.4,5.4,47.1c3.6,13.7,9,25.2,16.1,34.7
		c7.8,10.1,17.8,17.8,30,23s26.5,7.8,43,7.8c10.8,0,20.6-1.4,29.4-4c8.8-2.6,16.6-6.5,23.4-11.6c7.2-5.7,13.3-12.9,18.3-21.5
		c5.1-8.6,9.1-18.6,12-30h24h24c-3.4,17.7-9,33.4-16.8,47.2c-7.9,13.8-18,25.6-30.4,35.5c-11.6,9.3-24.4,16.2-38.3,20.9
		s-29,7-45.2,7c-25.1,0-47-4-65.7-11.9s-34.2-19.7-46.4-35.3C554,607.8,546,592,540.7,573.9c-5.3-18.1-8-38.6-8-61.4
		c0-22.3,2.7-42.7,8.3-60.9c5.5-18.2,13.9-34.4,25-48.3c12.7-16,28.1-27.9,46.5-35.8s39.5-11.8,63.6-11.8c17.7,0,33.9,2.3,48.6,7
		C739.2,367.2,752.3,374.1,763.7,383.4z"/>
</g>
</svg>
