<?xml version="1.0" encoding="utf-8"?>
<!-- Generator: Adobe Illustrator 25.3.1, SVG Export Plug-In . SVG Version: 6.00 Build 0)  -->
<svg version="1.1" id="レイヤー_1" xmlns="http://www.w3.org/2000/svg" xmlns:xlink="http://www.w3.org/1999/xlink" x="0px"
	 y="0px" viewBox="0 0 1024 1024" style="enable-background:new 0 0 1024 1024;" xml:space="preserve">
<style type="text/css">
	.st0{fill:#505050;}
	.st1{fill:#FFFFFF;stroke:#FFFFFF;stroke-width:20;stroke-miterlimit:10;}
</style>
<path class="st0" d="M512,81.9C274.8,81.9,81.9,274.8,81.9,512S274.8,942.1,512,942.1S942.1,749.2,942.1,512S749.2,81.9,512,81.9z
	 M512,880.6c-203.3,0-368.6-165.4-368.6-368.6S308.7,143.4,512,143.4S880.6,308.7,880.6,512S715.3,880.6,512,880.6z"/>
<path class="st1" d="M791.8,500.8c-17.1-22.5-49.2-27-71.7-9.9v0c-0.9-0.7-1.8-1.2-2.8-1.7L408.7,336.5c0.2-1.2,0.4-2.4,0.6-3.6
	c3.3-28.1-16.8-53.5-44.9-56.8c-28.1-3.3-53.5,16.8-56.8,44.9c-3.3,28.1,16.8,53.5,44.9,56.8l0,0.1L406,689.7
	c-23.8,10.5-35.9,37.2-28.2,62c8.4,27,37.1,42.1,64.1,33.8c27-8.4,42.1-37.1,33.8-64.1l258.7-140.3c0.3-0.2,0.7-0.4,1-0.6
	c15.9,5.1,33.3,2.2,46.6-7.9C804.5,555.4,808.9,523.3,791.8,500.8z M358.4,359.4c-17.9,0-32.5-14.6-32.5-32.5v0
	c0-17.9,14.6-32.5,32.5-32.5h0c17.9,0,32.5,14.6,32.5,32.5v0C390.9,344.8,376.3,359.4,358.4,359.4L358.4,359.4z M459.2,736.6
	c0,17.9-14.6,32.5-32.5,32.5h0c-17.9,0-32.5-14.6-32.5-32.5v0c0-17.9,14.6-32.5,32.5-32.5h0C444.6,704.1,459.2,718.6,459.2,736.6
	L459.2,736.6z M456.2,694.7c-7.4-5.2-16.1-8.4-25.1-9.2c-0.1-0.6-0.1-1.1-0.2-1.7l-53.1-309.5c5-2,9.6-4.8,13.7-8.3l309.8,153.4v0
	c-3.3,13.3-1.2,27.4,6,39.1L456.2,694.7z M783.5,531.7c0,17.9-14.6,32.5-32.5,32.5h0c-17.9,0-32.5-14.6-32.5-32.5v0
	c0-17.9,14.6-32.5,32.5-32.5h0C769,499.2,783.5,513.8,783.5,531.7L783.5,531.7z"/>
</svg>
