<svg viewBox="0 0 1024 1024" version="1.1" xmlns="http://www.w3.org/2000/svg"><path d="M860.591104 70.452224 512.002048 419.044352 163.408896 70.452224c-25.668608-25.668608-67.288064-25.668608-92.957696 0-25.667584 25.667584-25.667584 67.284992 0 92.957696l348.594176 348.592128L70.4512 860.59008c-25.667584 25.668608-25.667584 67.290112 0 92.956672 25.669632 25.669632 67.289088 25.669632 92.957696 0l348.593152-348.587008 348.589056 348.587008c25.667584 25.669632 67.289088 25.669632 92.956672 0 25.668608-25.66656 25.668608-67.288064 0-92.956672L604.959744 512.002048 953.547776 163.40992c25.668608-25.669632 25.668608-67.290112 0-92.957696C927.880192 44.782592 886.263808 44.782592 860.591104 70.452224L860.591104 70.452224zM860.591104 70.452224" fill="#FFFFFF"></path></svg>