<?xml version="1.0" encoding="utf-8"?>
<!-- Generator: Adobe Illustrator 25.3.1, SVG Export Plug-In . SVG Version: 6.00 Build 0)  -->
<svg version="1.1" id="レイヤー_1" xmlns="http://www.w3.org/2000/svg" xmlns:xlink="http://www.w3.org/1999/xlink" x="0px"
	 y="0px" viewBox="0 0 1024 1024" style="enable-background:new 0 0 1024 1024;" xml:space="preserve">
<style type="text/css">
	.st0{fill:#505050;}
	.st1{fill:#FFFFFF;}
</style>
<path class="st0" d="M512,81.9C274.8,81.9,81.9,274.8,81.9,512S274.8,942.1,512,942.1S942.1,749.2,942.1,512S749.2,81.9,512,81.9z
	 M512,880.6c-203.3,0-368.6-165.4-368.6-368.6S308.7,143.4,512,143.4S880.6,308.7,880.6,512S715.3,880.6,512,880.6z"/>
<g>
	<path class="st1" d="M567.8,456.5C567.8,456.5,567.8,456.4,567.8,456.5c-43.9-43.9-115.1-43.8-158.9,0L297.4,567.9
		c-43.9,43.9-43.9,115.1,0,159l0,0c43.9,43.9,115.1,43.9,159,0l104.3-104.3c-0.7,0.4-1.4,0.7-2.1,1.1c-28.9,13.5-60,11.6-79.5-2.6
		l-64.3,64.2c-20.9,20.9-54.8,20.9-75.8,0l0,0c-20.9-20.9-20.9-54.8,0-75.8l111.4-111.4c20.9-20.9,54.8-20.9,75.8,0l0,0
		c11.5,11.5,30.1,11.5,41.6,0l0,0C579.3,486.6,579.3,468,567.8,456.5L567.8,456.5L567.8,456.5L567.8,456.5L567.8,456.5L567.8,456.5z
		"/>
	<path class="st1" d="M456.5,567.1C456.5,567.1,456.5,567.2,456.5,567.1c43.9,43.9,115.1,43.8,158.9,0l111.4-111.4
		c43.9-43.9,43.9-115.1,0-159l0,0c-43.9-43.9-115.1-43.9-159,0L463.5,400.9c0.7-0.4,1.4-0.7,2.1-1.1c28.9-13.5,60-11.6,79.5,2.6
		l64.2-64.2c20.9-20.9,54.8-20.9,75.8,0l0,0c20.9,20.9,20.9,54.8,0,75.8L573.8,525.5c-20.9,20.9-54.8,20.9-75.8,0l0,0
		c-11.5-11.5-30.1-11.5-41.6,0l0,0C445,537,445,555.6,456.5,567.1L456.5,567.1L456.5,567.1L456.5,567.1L456.5,567.1L456.5,567.1z"/>
</g>
</svg>
