<?xml version="1.0" encoding="utf-8"?>
<!-- Generator: Adobe Illustrator 25.3.1, SVG Export Plug-In . SVG Version: 6.00 Build 0)  -->
<svg version="1.1" id="レイヤー_1" xmlns="http://www.w3.org/2000/svg" xmlns:xlink="http://www.w3.org/1999/xlink" x="0px"
	 y="0px" viewBox="0 0 1024 1024" style="enable-background:new 0 0 1024 1024;" xml:space="preserve">
<style type="text/css">
	.st0{fill:#505050;}
	.st1{fill:#FFFFFF;}
</style>
<path class="st0" d="M512,942.1C274.8,942.1,81.9,749.2,81.9,512S274.8,81.9,512,81.9S942.1,274.8,942.1,512S749.2,942.1,512,942.1
	L512,942.1z M512,143.4c-203.3,0-368.6,165.4-368.6,368.6S308.7,880.6,512,880.6S880.6,715.3,880.6,512S715.3,143.4,512,143.4z"/>
<path class="st1" d="M453.1,690.6c-12.6,0-25.2-3.3-36.7-9.9c-22.9-13.3-36.7-37-36.7-63.5V407c0-26.5,13.7-50.2,36.7-63.5
	s50.4-13.3,73.3,0l182,105.1c22.9,13.3,36.7,37,36.7,63.5c0,26.5-13.7,50.2-36.7,63.5l-182,105.1
	C478.3,687.3,465.7,690.6,453.1,690.6L453.1,690.6z M453.1,395c-2.6,0-4.7,0.9-6,1.6c-2.2,1.3-5.9,4.3-5.9,10.3v210.2
	c0,6,3.7,9,5.9,10.3c2.2,1.3,6.7,3,11.9,0l182-105.1c5.2-3,5.9-7.7,5.9-10.3c0-2.6-0.8-7.3-5.9-10.3L459,396.6
	C456.9,395.5,454.9,395,453.1,395z"/>
</svg>
