<?xml version="1.0" encoding="utf-8"?>
<!-- Generator: Adobe Illustrator 25.3.1, SVG Export Plug-In . SVG Version: 6.00 Build 0)  -->
<svg version="1.1" id="レイヤー_1" xmlns="http://www.w3.org/2000/svg" xmlns:xlink="http://www.w3.org/1999/xlink" x="0px"
	 y="0px" viewBox="0 0 1024 1024" style="enable-background:new 0 0 1024 1024;" xml:space="preserve">
<style type="text/css">
	.st0{fill:#FFFFFF;}
	.st1{fill:#505050;}
</style>
<path class="st0" d="M795.5,713h-290c-13.8,0-25-11.2-25-25V523c0-13.8,11.2-25,25-25h290c13.8,0,25,11.2,25,25v165
	C820.5,701.8,809.3,713,795.5,713z"/>
<path class="st1" d="M892,189.5H132c-27.6,0-50,22.4-50,50v545c0,27.6,22.4,50,50,50h760c27.6,0,50-22.4,50-50v-545
	C942,211.9,919.6,189.5,892,189.5z M880.5,748c0,13.8-11.2,25-25,25h-687c-13.8,0-25-11.2-25-25V276c0-13.8,11.2-25,25-25h687
	c13.8,0,25,11.2,25,25V748z"/>
</svg>
