<?xml version="1.0" encoding="utf-8"?>
<!-- Generator: Adobe Illustrator 25.3.1, SVG Export Plug-In . SVG Version: 6.00 Build 0)  -->
<svg version="1.1" id="レイヤー_1" xmlns="http://www.w3.org/2000/svg" xmlns:xlink="http://www.w3.org/1999/xlink" x="0px"
	 y="0px" viewBox="0 0 1024 1024" style="enable-background:new 0 0 1024 1024;" xml:space="preserve">
<style type="text/css">
	.st0{fill:#505050;}
	.st1{fill:#FFFFFF;}
</style>
<path class="st0" d="M512,942.1C274.8,942.1,81.9,749.2,81.9,512S274.8,81.9,512,81.9S942.1,274.8,942.1,512S749.2,942.1,512,942.1
	L512,942.1z M512,143.4c-203.3,0-368.6,165.4-368.6,368.6S308.7,880.6,512,880.6S880.6,715.3,880.6,512S715.3,143.4,512,143.4z"/>
<path class="st1" d="M498.2,304.4c0,17,13.8,30.7,30.7,30.7h30.8H664c13.8,0,25,11.2,25,25v104.3v30.8c0,17,13.8,30.7,30.7,30.7l0,0
	c17,0,30.7-13.8,30.7-30.7V353.6c0-44.2-35.8-80-80-80H528.9C511.9,273.6,498.2,287.4,498.2,304.4L498.2,304.4z"/>
<path class="st1" d="M525.9,719.6c0-17-13.8-30.7-30.7-30.7h-30.8H360.1c-13.8,0-25-11.2-25-25V559.6v-30.8
	c0-17-13.8-30.7-30.7-30.7l0,0c-17,0-30.8,13.8-30.8,30.7v141.6c0,44.2,35.8,80,80,80h141.6C512.2,750.4,525.9,736.6,525.9,719.6
	L525.9,719.6z"/>
</svg>
