<?xml version="1.0" encoding="utf-8"?>
<!-- Generator: Adobe Illustrator 25.3.1, SVG Export Plug-In . SVG Version: 6.00 Build 0)  -->
<svg version="1.1" id="レイヤー_1" xmlns="http://www.w3.org/2000/svg" xmlns:xlink="http://www.w3.org/1999/xlink" x="0px"
	 y="0px" viewBox="0 0 1024 1024" style="enable-background:new 0 0 1024 1024;" xml:space="preserve">
<style type="text/css">
	.st0{fill:#505050;}
	.st1{fill:#FFFFFF;}
</style>
<path class="st0" d="M512,942.1C274.8,942.1,81.9,749.2,81.9,512S274.8,81.9,512,81.9S942.1,274.8,942.1,512S749.2,942.1,512,942.1
	L512,942.1z M512,143.4c-203.3,0-368.6,165.4-368.6,368.6S308.7,880.6,512,880.6S880.6,715.3,880.6,512S715.3,143.4,512,143.4z"/>
<path class="st1" d="M252.6,355.4c-12,12-12,31.5,0,43.4l21.8,21.8l73.8,73.8c9.8,9.8,9.8,25.6,0,35.4l-73.8,73.8l-21.8,21.8
	c-12,12-12,31.5,0,43.4l0,0c12,12,31.5,12,43.4,0l100.1-100.1c31.3-31.3,31.3-81.9,0-113.1L296,355.3
	C284,343.3,264.6,343.4,252.6,355.4L252.6,355.4z"/>
<path class="st1" d="M771.4,668.6c12-12,12-31.5,0-43.4l-21.8-21.8l-73.8-73.8c-9.8-9.8-9.8-25.6,0-35.4l73.8-73.8l21.8-21.8
	c12-12,12-31.5,0-43.4l0,0c-12-12-31.5-12-43.5-0.1L627.8,455.4c-31.3,31.3-31.3,81.9,0,113.1L728,668.7
	C740,680.7,759.4,680.6,771.4,668.6L771.4,668.6z"/>
</svg>
