<?xml version="1.0" encoding="utf-8"?>
<!-- Generator: Adobe Illustrator 25.3.1, SVG Export Plug-In . SVG Version: 6.00 Build 0)  -->
<svg version="1.1" id="レイヤー_1" xmlns="http://www.w3.org/2000/svg" xmlns:xlink="http://www.w3.org/1999/xlink" x="0px"
	 y="0px" viewBox="0 0 1024 1024" style="enable-background:new 0 0 1024 1024;" xml:space="preserve">
<style type="text/css">
	.st0{fill:#505050;}
	.st1{fill:#FFFFFF;}
</style>
<path class="st0" d="M512,942.1C274.8,942.1,81.9,749.2,81.9,512S274.8,81.9,512,81.9S942.1,274.8,942.1,512S749.2,942.1,512,942.1
	L512,942.1z M512,143.4c-203.3,0-368.6,165.4-368.6,368.6S308.7,880.6,512,880.6S880.6,715.3,880.6,512S715.3,143.4,512,143.4z"/>
<path class="st1" d="M217.8,584.7c0,17,13.8,30.7,30.7,30.7h30.8h104.3c13.8,0,25,11.2,25,25v104.3v30.8c0,17,13.8,30.7,30.7,30.7h0
	c17,0,30.7-13.8,30.7-30.7V633.9c0-44.2-35.8-80-80-80H248.5C231.5,553.9,217.8,567.7,217.8,584.7L217.8,584.7z"/>
<path class="st1" d="M806.2,439.3c0-17-13.8-30.7-30.7-30.7h-30.8H640.4c-13.8,0-25-11.2-25-25V279.3v-30.8
	c0-17-13.8-30.7-30.7-30.7h0c-17,0-30.8,13.8-30.8,30.7v141.6c0,44.2,35.8,80,80,80h141.6C792.5,470.1,806.2,456.3,806.2,439.3
	L806.2,439.3z"/>
</svg>
