<?xml version="1.0" encoding="utf-8"?>
<!-- Generator: Adobe Illustrator 25.3.1, SVG Export Plug-In . SVG Version: 6.00 Build 0)  -->
<svg version="1.1" id="レイヤー_1" xmlns="http://www.w3.org/2000/svg" xmlns:xlink="http://www.w3.org/1999/xlink" x="0px"
	 y="0px" viewBox="0 0 1024 1024" style="enable-background:new 0 0 1024 1024;" xml:space="preserve">
<style type="text/css">
	.st0{fill:#FFFFFF;}
</style>
<path class="st0" d="M512,81.9C274.8,81.9,81.9,274.8,81.9,512S274.8,942.1,512,942.1S942.1,749.2,942.1,512S749.2,81.9,512,81.9z
	 M512,880.6c-203.3,0-368.6-165.4-368.6-368.6S308.7,143.4,512,143.4S880.6,308.7,880.6,512S715.3,880.6,512,880.6z"/>
<path class="st0" d="M512,605.1c17,0,30.8-13.8,30.7-30.7V269.7c0-16.9-13.8-30.7-30.7-30.7c-16.9,0-30.7,13.8-30.7,30.7v304.7
	C481.3,591.3,495.1,605.1,512,605.1z"/>
<path class="st0" d="M512,785L512,785c-38.7,0-70-31.3-70-70l0,0c0-38.7,31.3-70,70-70l0,0c38.7,0,70,31.3,70,70l0,0
	C582,753.7,550.7,785,512,785z"/>
</svg>
